<svg xmlns="http://www.w3.org/2000/svg" viewBox="0 0 100 100">
  <!-- Background circle -->
  <circle cx="50" cy="50" r="50" fill="#8b7355"/>
  
  <!-- Large centered paw print -->
  <g transform="translate(50, 50)">
    <!-- Main pad -->
    <ellipse cx="0" cy="5" rx="12" ry="15" fill="#faf8f3"/>
    
    <!-- Toe pads -->
    <ellipse cx="-8" cy="-8" rx="5" ry="7" fill="#faf8f3" transform="rotate(-15 -8 -8)"/>
    <ellipse cx="-2" cy="-12" rx="5" ry="7" fill="#faf8f3" transform="rotate(-5 -2 -12)"/>
    <ellipse cx="5" cy="-12" rx="5" ry="7" fill="#faf8f3" transform="rotate(5 5 -12)"/>
    <ellipse cx="10" cy="-7" rx="5" ry="7" fill="#faf8f3" transform="rotate(15 10 -7)"/>
  </g>
  
  <!-- Small decorative paw prints -->
  <g opacity="0.5" fill="#faf8f3">
    <!-- Top left paw -->
    <ellipse cx="20" cy="25" rx="4" ry="5"/>
    <ellipse cx="16" cy="20" rx="2" ry="3" transform="rotate(-20 16 20)"/>
    <ellipse cx="20" cy="18" rx="2" ry="3"/>
    <ellipse cx="24" cy="20" rx="2" ry="3" transform="rotate(20 24 20)"/>
    
    <!-- Bottom right paw -->
    <ellipse cx="80" cy="75" rx="4" ry="5"/>
    <ellipse cx="76" cy="70" rx="2" ry="3" transform="rotate(-20 76 70)"/>
    <ellipse cx="80" cy="68" rx="2" ry="3"/>
    <ellipse cx="84" cy="70" rx="2" ry="3" transform="rotate(20 84 70)"/>
  </g>
</svg>
