<svg xmlns="http://www.w3.org/2000/svg" viewBox="0 0 100 100">
  <circle cx="50" cy="50" r="50" fill="#8b7355"/>
  
  <!-- Left Dog -->
  <g transform="translate(25, 35)">
    <!-- Head -->
    <circle cx="0" cy="0" r="12" fill="#6b5545"/>
    <!-- Ears -->
    <ellipse cx="-8" cy="-8" rx="5" ry="8" fill="#6b5545"/>
    <ellipse cx="8" cy="-8" rx="5" ry="8" fill="#6b5545"/>
    <!-- Eyes -->
    <circle cx="-4" cy="-2" r="2" fill="#fff"/>
    <circle cx="4" cy="-2" r="2" fill="#fff"/>
    <!-- Nose -->
    <circle cx="0" cy="3" r="2" fill="#2d2520"/>
    <!-- Body -->
    <ellipse cx="0" cy="18" rx="10" ry="14" fill="#6b5545"/>
    <!-- Legs -->
    <rect x="-8" y="25" width="4" height="8" rx="2" fill="#6b5545"/>
    <rect x="4" y="25" width="4" height="8" rx="2" fill="#6b5545"/>
    <!-- Tail -->
    <path d="M -10 15 Q -18 12 -16 8" stroke="#6b5545" stroke-width="3" fill="none" stroke-linecap="round"/>
  </g>
  
  <!-- Right Dog -->
  <g transform="translate(75, 35)">
    <!-- Head -->
    <circle cx="0" cy="0" r="12" fill="#d4a574"/>
    <!-- Ears -->
    <ellipse cx="-8" cy="-8" rx="5" ry="8" fill="#d4a574"/>
    <ellipse cx="8" cy="-8" rx="5" ry="8" fill="#d4a574"/>
    <!-- Eyes -->
    <circle cx="-4" cy="-2" r="2" fill="#2d2520"/>
    <circle cx="4" cy="-2" r="2" fill="#2d2520"/>
    <!-- Nose -->
    <circle cx="0" cy="3" r="2" fill="#2d2520"/>
    <!-- Body -->
    <ellipse cx="0" cy="18" rx="10" ry="14" fill="#d4a574"/>
    <!-- Legs -->
    <rect x="-8" y="25" width="4" height="8" rx="2" fill="#d4a574"/>
    <rect x="4" y="25" width="4" height="8" rx="2" fill="#d4a574"/>
    <!-- Tail -->
    <path d="M 10 15 Q 18 12 16 8" stroke="#d4a574" stroke-width="3" fill="none" stroke-linecap="round"/>
  </g>
  
  <!-- Heart between dogs -->
  <path d="M 50 45 L 53 42 Q 56 39 56 36 Q 56 33 54 31 Q 52 29 50 31 Q 48 29 46 31 Q 44 33 44 36 Q 44 39 47 42 Z" fill="#ff6b8a"/>
</svg>
